HIERARCHY
ROOT Hips
{
  OFFSET 39.0718 98.8034 4.35086
  CHANNELS 6 Xposition Yposition Zposition Zrotation Xrotation Yrotation
  JOINT spine
  {
    OFFSET 0 8.30103 0.477351
    CHANNELS 3 Zrotation Xrotation Yrotation
    JOINT spine1
    {
      OFFSET 0 10.4565 0
      CHANNELS 3 Zrotation Xrotation Yrotation
      JOINT spine2
      {
        OFFSET 0 10.0192 0
        CHANNELS 3 Zrotation Xrotation Yrotation
        JOINT Neck
        {
          OFFSET 0 25.7235 1.22641
          CHANNELS 3 Zrotation Xrotation Yrotation
          JOINT Head
          {
            OFFSET 0 7.77175 0
            CHANNELS 3 Zrotation Xrotation Yrotation
            End Site
            {
              OFFSET 0 18.812 -6.20394
            }
          }
        }
        JOINT RightShoulder
        {
          OFFSET -4.2188 10.82 -0.587439
          CHANNELS 3 Zrotation Xrotation Yrotation
          JOINT RightArm
          {
            OFFSET 0 14.1914 0
            CHANNELS 3 Zrotation Xrotation Yrotation
            JOINT RightArmRoll
            {
              OFFSET 0 7.16408 0
              CHANNELS 3 Zrotation Xrotation Yrotation
              JOINT RightForeArm
              {
                OFFSET 0 20.8665 0
                CHANNELS 3 Zrotation Xrotation Yrotation
                JOINT RightForeArmRoll
                {
                  OFFSET 0 8.03921 0
                  CHANNELS 3 Zrotation Xrotation Yrotation
                  JOINT RightHand
                  {
                    OFFSET 0 16.133 0
                    CHANNELS 3 Zrotation Xrotation Yrotation
                    End Site
                    {
                      OFFSET 0 0 0
                    }
                  }
                }
              }
            }
          }
        }
        JOINT LeftShoulder
        {
          OFFSET 4.2188 10.82 -0.587439
          CHANNELS 3 Zrotation Xrotation Yrotation
          JOINT LeftArm
          {
            OFFSET 0 14.1914 0
            CHANNELS 3 Zrotation Xrotation Yrotation
            JOINT LeftArmRoll
            {
              OFFSET 0 7.16408 0
              CHANNELS 3 Zrotation Xrotation Yrotation
              JOINT LeftForeArm
              {
                OFFSET 0 20.8665 0
                CHANNELS 3 Zrotation Xrotation Yrotation
                JOINT LeftForeArmRoll
                {
                  OFFSET 0 8.03921 0
                  CHANNELS 3 Zrotation Xrotation Yrotation
                  JOINT LeftHand
                  {
                    OFFSET 0 16.133 0
                    CHANNELS 3 Zrotation Xrotation Yrotation
                    End Site
                    {
                      OFFSET 0 0 0
                    }
                  }
                }
              }
            }
          }
        }
      }
    }
  }
  JOINT RightUpLeg
  {
    OFFSET -7.35773 -1.34921 -1.13181
    CHANNELS 3 Zrotation Xrotation Yrotation
    JOINT RightUpLegRoll
    {
      OFFSET 0 18.9168 0
      CHANNELS 3 Zrotation Xrotation Yrotation
      JOINT RightLeg
      {
        OFFSET 0 -23.4256 0
        CHANNELS 3 Zrotation Xrotation Yrotation
        JOINT RightLegRoll
        {
          OFFSET 0 23.5023 0
          CHANNELS 3 Zrotation Xrotation Yrotation
          JOINT RightFoot
          {
            OFFSET 0 19.5617 0
            CHANNELS 3 Zrotation Xrotation Yrotation
            JOINT RightToeBase
            {
              OFFSET 0 16.3526 0
              CHANNELS 3 Zrotation Xrotation Yrotation
              End Site
              {
                OFFSET 0.00693125 7.91944 -0.912837
              }
            }
          }
        }
      }
    }
  }
  JOINT LeftUpLeg
  {
    OFFSET 7.35773 -1.34921 -1.13181
    CHANNELS 3 Zrotation Xrotation Yrotation
    JOINT LeftUpLegRoll
    {
      OFFSET 0 18.9169 0
      CHANNELS 3 Zrotation Xrotation Yrotation
      JOINT LeftLeg
      {
        OFFSET 0 23.4255 0
        CHANNELS 3 Zrotation Xrotation Yrotation
        JOINT LeftLegRoll
        {
          OFFSET 0 23.7195 0
          CHANNELS 3 Zrotation Xrotation Yrotation
          JOINT LeftFoot
          {
            OFFSET 0 19.3444 0
            CHANNELS 3 Zrotation Xrotation Yrotation
            JOINT LeftToeBase
            {
              OFFSET 0 16.3526 0
              CHANNELS 3 Zrotation Xrotation Yrotation
              End Site
              {
                OFFSET -0.0310629 7.91943 -0.912837
              }
            }
          }
        }
      }
    }
  }
}
MOTION
Frames: 8
Frame Time: 0.00208333
39.0026 98.8067 4.46833 1.05814 -1.62184 1.33978 -0.175111 -1.83989 0.227368 -0.341097 0.345188 0.474449 -0.346925 1.99023 0.480327 0.541054 39.3562 -2.82799 -0.967909 -23.5382 -2.79362 32.8415 -11.943 -8.06348 30.7518 41.4133 69.89 2.06167e-005 6.65696e-006 3.53773e-006 -158.189 77.2417 166.535 6.72176e-006 -1.3558e-006 -3.00807 8.02925 -4.95141 0.697674 -67.5413 2.18485 -0.0653483 -98.8928 9.06426 -16.8443 -8.74653e-015 -1.59028e-015 -3.18055e-015 -10.7997 5.67984 1.0701 4.22727e-006 -3.1371e-006 3 -8.02905 -4.95145 -0.697675 175.535 -0.241316 1.27737 180 7.01545e-015 178.916 176.192 6.51413 179.746 -7.94694e-007 3.61862e-006 0.070782 -18.8946 68.2904 19.793 8.13649 25.2326 -3.48773 -176.446 -1.05372 0.995078 4.54188e-006 -4.6773e-006 -1.13761 -3.88027 -7.95577 0.374578 2.90856e-006 -7.82371e-006 -0.101345 17.9399 66.9728 -18.6993 -8.13649 25.2327 3.48774 
39 98.8073 4.46924 1.05567 -1.62093 1.32846 -0.174816 -1.84033 0.227334 -0.341245 0.34617 0.474532 -0.347075 1.99121 0.480413 0.407036 39.3508 -2.76066 -0.863386 -23.5232 -2.75995 32.8299 -11.926 -8.04657 30.8185 41.4022 69.8264 2.06167e-005 6.65696e-006 3.53773e-006 -159.572 76.5926 168.01 6.72176e-006 -1.3558e-006 -3.00807 8.02925 -4.95141 0.697674 -67.5809 2.17401 -0.054315 -98.8894 9.06656 -16.8363 -1.59028e-015 -3.18055e-015 -6.36111e-015 -10.806 5.68677 1.07149 4.22727e-006 -3.1371e-006 3 -8.02905 -4.95145 -0.697675 175.538 -0.23754 1.27916 180 7.01545e-015 178.916 176.185 6.51344 179.747 -7.94694e-007 3.61862e-006 0.0708117 -18.8935 68.2891 19.792 8.13649 25.2326 -3.48773 -176.443 -1.05794 0.99491 4.54188e-006 -4.6773e-006 -1.1378 -3.87822 -7.94831 0.374791 2.90857e-006 -7.82371e-006 -0.101268 17.9389 66.9714 -18.6983 -8.13649 25.2327 3.48774 
38.9872 98.8024 4.46348 1.05309 -1.62028 1.31731 -0.174536 -1.84055 0.227218 -0.341338 0.347301 0.474431 -0.347169 1.99234 0.480313 0.275795 39.3443 -2.69439 -0.762433 -23.5076 -2.72709 32.8185 -11.909 -8.02971 30.8987 41.3936 69.7358 2.06167e-005 6.65696e-006 3.53773e-006 -160.796 75.9432 169.315 6.72176e-006 -1.3558e-006 -3.00807 8.02925 -4.95141 0.697674 -67.6194 2.16279 -0.0432633 -98.8877 9.06882 -16.8285 -1.15295e-014 -7.95139e-015 -3.18055e-015 -10.812 5.6946 1.07297 4.22727e-006 -3.1371e-006 3 -8.02905 -4.95145 -0.697675 175.542 -0.234419 1.2807 180 7.01545e-015 178.916 176.179 6.51217 179.748 -7.94694e-007 3.61862e-006 0.0708414 -18.8921 68.2876 19.7909 8.13649 25.2326 -3.48773 -176.439 -1.06175 0.994539 4.54188e-006 -4.6773e-006 -1.13799 -3.87619 -7.94213 0.374973 2.90857e-006 -7.82371e-006 -0.101204 17.9383 66.9705 -18.6975 -8.13649 25.2327 3.48774 
38.9759 98.7992 4.46254 1.05042 -1.61993 1.30637 -0.174285 -1.84049 0.227006 -0.341387 0.348604 0.474114 -0.347216 1.99365 0.479997 0.147995 39.3368 -2.62949 -0.665834 -23.4913 -2.69525 32.8072 -11.8922 -8.01294 30.9943 41.3878 69.614 2.06167e-005 6.65696e-006 3.53773e-006 -161.881 75.2963 170.467 6.72176e-006 -1.3558e-006 -3.00807 8.02925 -4.95141 0.697674 -67.6563 2.15109 -0.0321812 -98.8877 9.07103 -16.8208 1.31198e-014 3.18055e-015 -0 -10.8175 5.70345 1.07451 4.22727e-006 -3.1371e-006 3 -8.02905 -4.95145 -0.697675 175.546 -0.23204 1.2819 180 7.01545e-015 178.916 176.173 6.51027 179.748 -7.94694e-007 3.61862e-006 0.0708712 -18.8905 68.2858 19.7895 8.13649 25.2326 -3.48773 -176.436 -1.06491 0.993796 4.54188e-006 -4.6773e-006 -1.13817 -3.87431 -7.93778 0.375107 2.90856e-006 -7.82371e-006 -0.101165 17.9381 66.9701 -18.6973 -8.13649 25.2327 3.48774 
38.9749 98.7993 4.4726 1.04766 -1.6199 1.29564 -0.174077 -1.84013 0.226682 -0.341398 0.350101 0.473547 -0.347223 1.99514 0.47943 0.0242962 39.3282 -2.56625 -0.574374 -23.4742 -2.66464 32.7959 -11.8754 -7.99628 31.1074 41.3848 69.4565 2.06167e-005 6.65696e-006 3.53773e-006 -162.843 74.654 171.483 6.72176e-006 -1.3558e-006 -3.00806 8.02925 -4.95141 0.697674 -67.6917 2.13886 -0.0210568 -98.8898 9.07317 -16.8133 0 0 -6.36111e-015 -10.8224 5.71341 1.07613 4.22727e-006 -3.1371e-006 3 -8.02905 -4.95145 -0.697675 175.55 -0.230493 1.28269 180 7.01545e-015 178.916 176.168 6.50766 179.749 -7.94694e-007 3.61862e-006 0.0709011 -18.8886 68.2837 19.7878 8.13649 25.2326 -3.48773 -176.431 -1.06719 0.992513 4.54188e-006 -4.6773e-006 -1.13835 -3.8727 -7.9358 0.375174 2.90856e-006 -7.82371e-006 -0.101162 17.9383 66.9703 -18.6976 -8.13649 25.2327 3.48774 
38.9729 98.7955 4.4707 1.04483 -1.62025 1.28514 -0.173925 -1.8394 0.226233 -0.341381 0.351814 0.472699 -0.3472 1.99686 0.478581 -0.0946379 39.3183 -2.50497 -0.488838 -23.4564 -2.63547 32.7845 -11.8588 -7.97975 31.24 41.3847 69.2589 2.06167e-005 6.65696e-006 3.53773e-006 -163.698 74.0188 172.374 6.72176e-006 -1.3558e-006 -3.00806 8.02925 -4.95141 0.697674 -67.7252 2.12601 -0.00987823 -98.8942 9.07522 -16.8061 -5.1684e-015 0 -3.18055e-015 -10.8266 5.72457 1.07782 4.22727e-006 -3.1371e-006 3 -8.02905 -4.95145 -0.697675 175.554 -0.229866 1.28298 180 7.01545e-015 178.916 176.164 6.50435 179.749 -7.94694e-007 3.61862e-006 0.0709311 -18.8865 68.2813 19.7859 8.13649 25.2326 -3.48773 -176.427 -1.06835 0.990523 4.54188e-006 -4.6773e-006 -1.13852 -3.87149 -7.93673 0.375153 2.90857e-006 -7.82371e-006 -0.101207 17.9392 66.9713 -18.6985 -8.13649 25.2327 3.48774 
38.9667 98.7943 4.46192 1.0419 -1.62095 1.27485 -0.173832 -1.83829 0.225633 -0.34132 0.353774 0.471491 -0.347131 1.99882 0.47737 -0.208688 39.3074 -2.44564 -0.409688 -23.4383 -2.60782 32.7728 -11.8423 -7.96344 31.3904 41.3853 69.0267 2.06167e-005 6.65696e-006 3.53773e-006 -164.477 73.3885 173.176 6.72177e-006 -1.3558e-006 -3.00806 8.02925 -4.95141 0.697674 -67.757 2.11225 0.00151937 -98.9013 9.07725 -16.7992 1.03368e-014 3.18055e-015 3.18055e-015 -10.83 5.73731 1.07965 4.22727e-006 -3.1371e-006 3 -8.02905 -4.95145 -0.697675 175.558 -0.230113 1.28288 180 7.01545e-015 178.916 176.16 6.50027 179.75 -7.94694e-007 3.61862e-006 0.0709612 -18.884 68.2785 19.7836 8.13649 25.2326 -3.48773 -176.422 -1.06879 0.988202 4.54188e-006 -4.6773e-006 -1.13869 -3.87035 -7.93977 0.375081 2.90857e-006 -7.82371e-006 -0.101277 17.9405 66.973 -18.7 -8.13649 25.2327 3.48774 
38.9583 98.8039 4.4636 1.03885 -1.62194 1.26476 -0.173783 -1.83681 0.224883 -0.341196 0.355975 0.469902 -0.346996 2.00102 0.475777 -0.318528 39.2955 -2.38791 -0.336355 -23.4204 -2.58149 32.7604 -11.8262 -7.9474 31.555 41.3846 68.7686 2.06167e-005 6.65696e-006 3.53773e-006 -165.204 72.7602 173.916 6.72177e-006 -1.3558e-006 -3.00805 8.02925 -4.95141 0.697674 -67.7873 2.09742 0.0132429 -98.9107 9.07932 -16.7928 8.34896e-015 1.59028e-015 -3.18055e-015 -10.8326 5.75176 1.08166 4.22727e-006 -3.1371e-006 3 -8.02905 -4.95145 -0.697675 175.563 -0.231095 1.28257 180 7.01545e-015 178.916 176.156 6.49551 179.75 -7.94694e-007 3.61862e-006 0.0709913 -18.8813 68.2754 19.7811 8.13649 25.2326 -3.48773 -176.417 -1.06905 0.98602 4.54188e-006 -4.6773e-006 -1.13886 -3.86889 -7.94369 0.375005 2.90857e-006 -7.82371e-006 -0.101344 17.9422 66.9751 -18.7019 -8.13649 25.2327 3.48774 
